<svg xmlns="http://www.w3.org/2000/svg" viewBox="0 0 200 200" width="200" height="200">
  <!-- Top-left petal (dark) — sharp corner at BR (centre) -->
  <path d="M 28 0 L 67 0 Q 95 0 95 28 L 95 95 L 28 95 Q 0 95 0 67 L 0 28 Q 0 0 28 0 Z" fill="#111111"/>
  <!-- Top-right petal (green) — sharp corner at BL (centre) -->
  <g transform="translate(105,0)">
    <path d="M 28 0 L 67 0 Q 95 0 95 28 L 95 67 Q 95 95 67 95 L 0 95 L 0 28 Q 0 0 28 0 Z" fill="#3ECF6A"/>
  </g>
  <!-- Bottom-left petal (green) — sharp corner at TR (centre) -->
  <g transform="translate(0,105)">
    <path d="M 28 0 L 95 0 L 95 67 Q 95 95 67 95 L 28 95 Q 0 95 0 67 L 0 28 Q 0 0 28 0 Z" fill="#3ECF6A"/>
  </g>
  <!-- Bottom-right petal (dark) — sharp corner at TL (centre) -->
  <g transform="translate(105,105)">
    <path d="M 0 0 L 67 0 Q 95 0 95 28 L 95 67 Q 95 95 67 95 L 28 95 Q 0 95 0 67 L 0 0 Z" fill="#111111"/>
  </g>
</svg>
